PathFileType	4	(X/Y/Z)	S:\OneDrive - The University of Tokyo\ìåëÂéˆã∆\ÉoÉCÉÅÉJ\ë™íË\hirabayashi_2\Trimmed\Trimmed_Trimmed_ShSs3-Bar.trc
DataRate	CameraRate	NumFrames	NumMarkers	Units	OrigDataRate	OrigDataStartFrame	OrigNumFrames
200.00	200.00	      12	12	mm	200.00	1504	      1718
Frame#	Time	BarR0			BarR50			BarR100			BarR130			BarR180			BarR230			BarL0			BarL50			BarL100			BarL130			BarL180			BarL230			
		X1	Y1	Z1	X2	Y2	Z2	X3	Y3	Z3	X4	Y4	Z4	X5	Y5	Z5	X6	Y6	Z6	X7	Y7	Z7	X8	Y8	Z8	X9	Y9	Z9	X10	Y10	Z10	X11	Y11	Z11	X12	Y12	Z12	

1504	7.515	-574.81744	2753.70947	1663.98425	-600.49457	2304.19653	1657.23242	-633.05804	1850.35535	1654.05261	-656.91882	1348.05347	1653.41870	-684.38916	901.54889	1658.09839	-711.56604	453.92538	1663.70605	-1115.30359	2806.30103	1664.28308	-1144.31519	2354.88379	1661.31152	-1176.06775	1904.78674	1658.18188	-1204.08911	1403.38782	1658.08911	-1227.10242	952.21411	1661.62915	-1245.77161	505.53207	1667.20886	
1505	7.520	-574.77740	2753.64600	1663.96667	-600.37280	2304.13135	1657.12207	-632.94366	1850.29309	1653.84937	-656.70886	1347.94592	1653.16895	-684.26349	901.47919	1657.96350	-711.50043	453.93967	1663.69995	-1115.42517	2806.18042	1664.27747	-1144.51611	2354.85840	1661.13574	-1176.42432	1904.74451	1657.89001	-1204.31592	1403.39233	1657.73816	-1227.54016	952.13196	1661.43506	-1245.86182	505.49457	1667.22070	
1506	7.525	-574.78790	2753.61353	1663.96863	-600.30713	2304.03516	1657.00562	-632.90948	1850.27588	1653.62476	-656.67084	1347.92383	1652.97253	-684.16754	901.44904	1657.83740	-711.47266	453.91553	1663.70105	-1115.53699	2806.10986	1664.25806	-1144.71777	2354.78857	1660.97485	-1176.88501	1904.72375	1657.56482	-1204.51941	1403.30176	1657.31580	-1227.86169	952.10718	1661.21289	-1245.96484	505.45184	1667.23511	
1507	7.530	-574.80212	2753.57373	1663.96655	-600.37915	2304.03418	1656.92981	-632.96478	1850.30750	1653.43958	-656.69122	1347.90466	1652.83435	-684.15973	901.44690	1657.74182	-711.45990	453.92389	1663.69739	-1115.70862	2806.02710	1664.25452	-1144.91748	2354.73438	1660.78796	-1177.20972	1904.68372	1657.27832	-1204.83276	1403.20374	1656.85779	-1228.27563	952.03967	1660.98169	-1246.04797	505.40329	1667.22363	
1508	7.535	-574.82275	2753.56689	1663.97998	-600.47632	2303.99072	1656.84998	-633.04340	1850.27307	1653.30762	-656.79773	1347.89807	1652.72754	-684.27905	901.41504	1657.61572	-711.48444	453.87921	1663.69885	-1115.86804	2805.95850	1664.26135	-1145.04358	2354.63916	1660.53870	-1177.78748	1904.67346	1656.84180	-1205.32764	1403.13367	1656.34021	-1228.38159	952.03931	1660.73682	-1246.06702	505.34988	1667.23132	
1509	7.540	-574.83966	2753.53418	1663.99133	-600.64844	2304.00098	1656.76953	-633.19812	1850.28943	1653.08777	-656.97174	1347.96619	1652.60095	-684.50769	901.40326	1657.49829	-711.56415	453.91675	1663.70728	-1115.92041	2805.84644	1664.26855	-1145.14832	2354.57593	1660.24951	-1178.07190	1904.64795	1656.20874	-1205.65076	1403.07935	1655.78137	-1228.55713	952.02844	1660.43567	-1245.94031	505.40619	1667.20886	
1510	7.545	-574.87604	2753.45874	1663.96387	-600.79150	2303.97363	1656.68677	-633.36841	1850.24854	1652.88196	-657.25598	1347.98010	1652.44702	-684.82153	901.42017	1657.32068	-711.65582	453.87720	1663.70544	-1115.99475	2805.76782	1664.25122	-1145.24866	2354.49731	1659.89832	-1178.35730	1904.67981	1655.46118	-1205.85266	1403.08435	1655.34924	-1228.76306	952.04272	1660.12000	-1246.38867	505.25104	1667.26428	
1511	7.550	-574.90918	2753.42334	1663.96130	-600.95374	2303.85913	1656.55945	-633.53577	1850.26807	1652.62244	-657.54260	1347.99695	1652.24512	-685.17413	901.40479	1657.09143	-711.75830	453.86890	1663.70178	-1116.00879	2805.65479	1664.25537	-1145.40344	2354.44897	1659.52686	-1178.71826	1904.65784	1654.90430	-1206.30713	1403.22437	1654.89795	-1229.05359	952.00116	1659.70764	-1246.39587	505.27933	1667.23694	
1512	7.555	-574.93707	2753.29150	1663.96350	-601.07770	2303.78589	1656.41064	-632.85602	1850.15491	1652.08069	-657.75940	1347.97156	1652.00806	-685.40131	901.38116	1656.87292	-711.84998	453.80811	1663.69189	-1116.08240	2805.57056	1664.23560	-1145.60730	2354.41284	1659.06458	-1178.73230	1904.55188	1654.46570	-1206.68164	1403.22498	1654.31934	-1229.40552	951.93506	1659.26147	-1246.39221	505.25748	1667.22571	
1513	7.560	-574.95044	2753.17480	1663.95837	-601.15997	2303.66382	1656.25244	-633.04150	1850.12622	1651.73108	-657.88568	1347.94678	1651.74158	-685.52936	901.33203	1656.64954	-711.91650	453.73239	1663.68323	-1116.07715	2805.47900	1664.25525	-1145.80164	2354.35815	1658.65857	-1178.94580	1904.48010	1653.76831	-1206.66663	1403.24072	1653.38928	-1229.61353	951.95813	1658.87659	-1246.35376	505.21408	1667.20862	
1514	7.565	-574.98450	2753.02246	1663.93726	-601.14917	2303.50220	1656.02393	-633.13770	1850.04492	1651.45215	-657.97723	1347.85669	1651.38611	-685.58661	901.22913	1656.45459	-711.99146	453.64172	1663.66980	-1116.06323	2805.33765	1664.24927	-1145.83582	2354.26587	1658.28149	-1179.13403	1904.46057	1652.91638	-1206.74780	1403.04651	1652.55701	-1229.95898	951.93628	1658.41895	-1246.35193	505.17230	1667.18372	
1515	7.570	-574.94690	2752.87769	1663.91943	-601.11169	2303.35620	1655.77832	-633.05713	1849.92200	1651.11731	-657.97632	1347.70227	1650.92358	-685.49274	901.12091	1656.23230	-712.04852	453.50150	1663.65259	-1116.13660	2805.23340	1664.24744	-1145.93726	2353.98926	1657.89575	-1179.17749	1904.36450	1652.07776	-1207.07019	1402.96924	1651.93652	-1230.77185	951.75238	1657.86719	-1246.31006	505.06943	1667.17053	
